<?xml version="1.0" encoding="utf-8"?>
<!-- Generator: Adobe Illustrator 24.2.1, SVG Export Plug-In . SVG Version: 6.00 Build 0)  -->
<svg version="1.1" id="Layer_1" xmlns="http://www.w3.org/2000/svg" xmlns:xlink="http://www.w3.org/1999/xlink" x="0px" y="0px"
	 viewBox="0 0 501.3 205.9" style="enable-background:new 0 0 501.3 205.9;" xml:space="preserve">
<style type="text/css">
	.st0{fill:#333333;}
</style>
<g>
	<path class="st0" d="M101.5,4.3c-54.3,0-98.3,44-98.3,98.3c0,54.3,44,98.3,98.3,98.3c54.3,0,98.3-44,98.3-98.3
		C199.7,48.3,155.7,4.3,101.5,4.3z M34.5,169.5c-16.6-16.6-27.1-39.4-27.7-64.7l10.6,0h55.5l0,88C58.3,188.2,45.2,180.1,34.5,169.5z
		 M17.5,101.2H6.8c0-1.8,0.1-3.6,0.2-5.4l10.4,0h61.7l-5.4,5.4H17.5z M76.6,193.9v-90.4l5.2-5.2l0,96.8
		C80,194.8,78.3,194.4,76.6,193.9z M17.5,92.1H7.4c0.2-1.8,0.5-3.6,0.8-5.4l10.7,0h69.4l-5.4,5.4H17.5z M90.6,196.6
		c-2.5-0.3-5-0.7-7.4-1.1h2.2V94.7l5.2-5.2V196.6z M99.5,197.2c-1.8,0-3.5-0.1-5.3-0.2V84.9c0-0.5-0.2-0.9-0.5-1.3
		c-0.3-0.3-0.8-0.5-1.3-0.5H18.9h-10c0.4-1.8,0.8-3.6,1.3-5.4h6.4v0h82.9V197.2z M112.3,196.6V89.5l5.2,5.2v100.8h2.2
		C117.3,195.9,114.8,196.3,112.3,196.6z M126.3,193.9c-1.7,0.5-3.4,0.9-5.2,1.3V98.3l5.2,5.2V193.9z M168.4,169.5
		c-10.6,10.6-23.7,18.7-38.4,23.3v-88h55.5h10.6C195.5,130.1,185,152.9,168.4,169.5z M196.1,101.2l-10.6,0h-56.3l-5.4-5.4l61.7,0
		h10.4C196,97.6,196.1,99.4,196.1,101.2z M195.5,92.1l-10.1,0h-65.4l-5.4-5.4H184h10.7C195.1,88.5,195.3,90.3,195.5,92.1z
		 M194.1,83.1l-10,0h-73.5c-0.5,0-0.9,0.2-1.3,0.5c-0.3,0.3-0.5,0.8-0.5,1.3V197c-1.8,0.1-3.7,0.2-5.6,0.3V77.6h83.2v0h6.4
		C193.3,79.4,193.7,81.2,194.1,83.1z M191.7,74h-5.3v0h-84.7H16.6h-5.3c0.6-1.8,1.2-3.6,1.9-5.4h3.4v0h169.8v0h3.4
		C190.5,70.4,191.1,72.2,191.7,74z M188.3,64.9h-2H16.6h-2c0.8-1.8,1.6-3.6,2.6-5.4h168.6C186.7,61.3,187.5,63.1,188.3,64.9z
		 M19.1,55.9c4.2-7.4,9.4-14.2,15.4-20.2C51.7,18.5,75.3,7.9,101.5,7.9c26.1,0,49.8,10.6,66.9,27.7c6,6,11.2,12.8,15.4,20.2H19.1z"
		/>
	<polygon class="st0" points="227.9,93 232.8,93 232.8,60.6 243.8,60.6 243.8,55.9 217,55.9 217,60.6 227.9,60.6 	"/>
	<path class="st0" d="M263.7,93.7c5.4,0,9.9-1.9,13.6-5.6c3.7-3.8,5.6-8.3,5.6-13.6s-1.9-9.9-5.6-13.6c-3.7-3.7-8.3-5.6-13.6-5.6
		c-5.4,0-9.9,1.9-13.6,5.6c-3.7,3.7-5.6,8.3-5.6,13.6s1.9,9.9,5.6,13.6C253.8,91.8,258.4,93.7,263.7,93.7z M253.5,64.2
		c2.7-2.8,6.1-4.2,10.2-4.2c4.1,0,7.5,1.4,10.2,4.2c2.7,2.8,4.1,6.2,4.1,10.3c0,4.1-1.4,7.5-4.1,10.3c-2.7,2.8-6.1,4.2-10.2,4.2
		c-4.1,0-7.5-1.4-10.2-4.2c-2.7-2.8-4.1-6.2-4.1-10.3S250.8,66.9,253.5,64.2z"/>
	<polygon class="st0" points="293.8,64.1 306,84.2 306.6,84.2 318.7,64 318.7,93 323.6,93 323.6,55.9 318,55.9 306.3,75.5 
		294.5,55.9 288.9,55.9 288.9,93 293.8,93 	"/>
	<polygon class="st0" points="336.5,64.1 348.6,84.2 349.2,84.2 361.4,64 361.4,93 366.2,93 366.2,55.9 360.7,55.9 348.9,75.5 
		337.1,55.9 331.5,55.9 331.5,93 336.5,93 	"/>
	<polygon class="st0" points="383.7,93 388.7,93 388.7,78 401.8,55.9 396.3,55.9 386.2,73.3 376.1,55.9 370.6,55.9 383.7,77.9 	"/>
	<polygon class="st0" points="227.9,143 232.8,143 232.8,110.5 243.8,110.5 243.8,105.9 217,105.9 217,110.5 227.9,110.5 	"/>
	<path class="st0" d="M267.3,128.1c2.3-0.8,4.1-2.2,5.5-4.2s2.1-4.2,2.1-6.6c0-3.2-1.1-5.9-3.4-8.2c-2.3-2.2-5-3.4-8.2-3.4h-14.8
		V143h4.9v-14.2h8.7l8.3,14.2h5.4L267.3,128.1z M253.6,124.3v-13.8h9.9c1.8,0,3.4,0.7,4.7,2c1.3,1.3,1.9,3,1.9,4.9
		c0,1.9-0.6,3.5-1.9,4.9c-1.3,1.4-2.9,2-4.7,2H253.6z"/>
	<rect x="281" y="105.9" class="st0" width="4.9" height="37.1"/>
	<polygon class="st0" points="316.9,133.5 297.8,105.9 293.9,105.9 293.9,143 298.8,143 298.8,115.3 317.9,143 321.8,143 
		321.8,105.9 316.9,105.9 	"/>
	<path class="st0" d="M361.8,124.4c0-5.2-1.7-9.6-5-13.2s-7.5-5.4-12.6-5.4h-14.5V143h14.5c5.1,0,9.3-1.8,12.6-5.4
		S361.8,129.6,361.8,124.4z M344.3,138.3h-9.5v-27.8h9.5c3.8,0,6.9,1.3,9.3,4c2.4,2.6,3.6,6,3.6,9.9s-1.2,7.3-3.6,9.9
		C351.1,137,348,138.3,344.3,138.3z"/>
	<polygon class="st0" points="390,138.3 372.7,138.3 372.7,126.5 388.4,126.5 388.4,121.9 372.7,121.9 372.7,110.5 389.7,110.5 
		389.7,105.9 367.8,105.9 367.8,143 390,143 	"/>
	<path class="st0" d="M417.9,143h5.4l-8.7-14.8c2.3-0.8,4.1-2.2,5.5-4.2c1.4-2,2.1-4.2,2.1-6.6c0-3.2-1.1-5.9-3.4-8.2
		c-2.3-2.2-5-3.4-8.2-3.4h-14.8V143h4.9v-14.2h8.7L417.9,143z M400.8,110.5h9.9c1.8,0,3.4,0.7,4.7,2c1.3,1.3,1.9,3,1.9,4.9
		c0,1.9-0.6,3.5-1.9,4.9c-1.3,1.4-2.9,2-4.7,2h-9.9V110.5z"/>
	<polygon class="st0" points="218.9,177.4 220.6,177.4 220.6,170 228.1,170 228.1,168.4 220.6,168.4 220.6,162.2 228.4,162.2 
		228.4,160.6 218.9,160.6 	"/>
	<path class="st0" d="M232.6,167.4v-2h-1.6v12h1.6v-6.7c0-3,1.9-4,3.8-4v-1.5C234.9,165.2,233.5,165.7,232.6,167.4z"/>
	<path class="st0" d="M248.2,167.7c-1-1.6-2.7-2.6-4.8-2.6c-3.4,0-6.2,2.7-6.2,6.3c0,3.6,2.8,6.3,6.2,6.3c2.1,0,3.8-1,4.8-2.6v2.4
		h1.6v-12h-1.6V167.7z M243.5,176.1c-2.7,0-4.7-2.1-4.7-4.8c0-2.7,2.1-4.8,4.7-4.8s4.7,2.1,4.7,4.8
		C248.2,174.1,246.1,176.1,243.5,176.1z"/>
	<path class="st0" d="M265.9,165.1c-1.5,0-3,0.7-3.9,2.2c-0.7-1.4-2-2.2-3.6-2.2c-1.4,0-2.7,0.6-3.7,2v-1.8h-1.6v12h1.6v-6.6
		c0-3,1.7-4.1,3.5-4.1c1.7,0,2.8,1.1,2.8,3.3v7.5h1.6v-6.6c0-3,1.5-4.1,3.3-4.1c1.7,0,2.9,1.1,2.9,3.3v7.5h1.6v-7.5
		C270.4,166.9,268.6,165.1,265.9,165.1z"/>
	<path class="st0" d="M279,165.1c-3.7,0-6.3,2.8-6.3,6.3c0,3.6,2.6,6.3,6.4,6.3c2.4,0,4.3-1.1,5.3-2.8l-1.4-0.8c-0.6,1.2-2,2-3.9,2
		c-2.5,0-4.4-1.5-4.8-4h10.5c0-0.2,0-0.5,0-0.7C285,168.2,282.7,165.1,279,165.1z M274.4,170.6c0.3-2.4,2.1-4,4.6-4
		c2.1,0,4,1.4,4.3,4H274.4z"/>
	<path class="st0" d="M293.9,165.1c-2.1,0-3.8,1-4.8,2.6v-2.4h-1.6v16.8h1.6V175c1,1.6,2.7,2.6,4.8,2.6c3.4,0,6.2-2.7,6.2-6.3
		C300.1,167.8,297.3,165.1,293.9,165.1z M293.8,176.1c-2.7,0-4.7-2.1-4.7-4.8c0-2.7,2.1-4.8,4.7-4.8s4.7,2.1,4.7,4.8
		C298.6,174.1,296.5,176.1,293.8,176.1z"/>
	<path class="st0" d="M308.4,165.1c-3.5,0-6.3,2.7-6.3,6.3c0,3.6,2.8,6.3,6.3,6.3c3.5,0,6.3-2.7,6.3-6.3
		C314.7,167.8,311.9,165.1,308.4,165.1z M308.4,176.1c-2.7,0-4.7-2.1-4.7-4.8c0-2.7,2.1-4.8,4.7-4.8s4.7,2.1,4.7,4.8
		C313.1,174.1,311,176.1,308.4,176.1z"/>
	<circle class="st0" cx="318.1" cy="161.7" r="1.2"/>
	<rect x="317.3" y="165.4" class="st0" width="1.6" height="12"/>
	<path class="st0" d="M327.9,165.1c-1.7,0-3.1,0.6-4,2.2v-1.9h-1.6v12h1.6v-6.3c0-3.2,1.8-4.5,3.9-4.5c2.1,0,3.3,1.2,3.3,3.4v7.4
		h1.6V170C332.6,167,330.8,165.1,327.9,165.1z"/>
	<path class="st0" d="M338.6,162l-1.6,0.5v2.9h-2.5v1.5h2.5v7.3c0,2.9,1.8,3.7,5,3.2V176c-2.3,0.1-3.5,0.3-3.5-1.8v-7.3h3.5v-1.5
		h-3.5V162z"/>
	<polygon class="st0" points="361.5,160.6 349.5,160.6 349.5,162.2 354.6,162.2 354.6,177.4 356.3,177.4 356.3,162.2 361.5,162.2 	
		"/>
	<path class="st0" d="M367,165.1c-3.7,0-6.3,2.8-6.3,6.3c0,3.6,2.6,6.3,6.4,6.3c2.4,0,4.3-1.1,5.3-2.8l-1.4-0.8c-0.6,1.2-2,2-3.9,2
		c-2.5,0-4.4-1.5-4.8-4h10.5c0-0.2,0-0.5,0-0.7C372.9,168.2,370.7,165.1,367,165.1z M362.4,170.6c0.3-2.4,2.1-4,4.6-4
		c2.1,0,4,1.4,4.3,4H362.4z"/>
	<path class="st0" d="M381.1,176.1c-2.7,0-4.7-2.1-4.7-4.8c0-2.7,2.1-4.8,4.7-4.8c1.8,0,3.3,0.9,4,2.4l1.3-0.7
		c-0.9-1.9-2.9-3.1-5.3-3.1c-3.6,0-6.3,2.7-6.3,6.3c0,3.6,2.7,6.3,6.3,6.3c2.4,0,4.4-1.2,5.4-3.1l-1.3-0.8
		C384.3,175.2,382.9,176.1,381.1,176.1z"/>
	<path class="st0" d="M394.3,165.1c-1.7,0-3.1,0.6-4,2.2v-6.7h-1.6v16.8h1.6v-6.3c0-3.2,1.8-4.5,3.9-4.5c2.1,0,3.3,1.2,3.3,3.4v7.4
		h1.6V170C399,167,397.3,165.1,394.3,165.1z"/>
	<path class="st0" d="M407.7,165.1c-1.7,0-3.1,0.6-4,2.2v-1.9h-1.6v12h1.6v-6.3c0-3.2,1.8-4.5,3.9-4.5c2.1,0,3.3,1.2,3.3,3.4v7.4
		h1.6V170C412.4,167,410.7,165.1,407.7,165.1z"/>
	<path class="st0" d="M421.1,165.1c-3.5,0-6.3,2.7-6.3,6.3c0,3.6,2.8,6.3,6.3,6.3c3.5,0,6.3-2.7,6.3-6.3
		C427.4,167.8,424.6,165.1,421.1,165.1z M421.1,176.1c-2.7,0-4.7-2.1-4.7-4.8c0-2.7,2.1-4.8,4.7-4.8s4.7,2.1,4.7,4.8
		C425.8,174.1,423.8,176.1,421.1,176.1z"/>
	<rect x="430" y="159.9" class="st0" width="1.6" height="17.5"/>
	<path class="st0" d="M440.6,165.1c-3.5,0-6.3,2.7-6.3,6.3c0,3.6,2.8,6.3,6.3,6.3c3.5,0,6.3-2.7,6.3-6.3
		C446.9,167.8,444.1,165.1,440.6,165.1z M440.6,176.1c-2.7,0-4.7-2.1-4.7-4.8c0-2.7,2.1-4.8,4.7-4.8s4.7,2.1,4.7,4.8
		C445.3,174.1,443.2,176.1,440.6,176.1z"/>
	<path class="st0" d="M459.9,167.7c-1-1.6-2.7-2.6-4.8-2.6c-3.4,0-6.2,2.7-6.2,6.3c0,3.6,2.8,6.3,6.2,6.3c2.1,0,3.8-1,4.8-2.6v1.9
		c0,2.4-1.7,4-4.4,4c-2.6,0-3.7-1-4.3-2.2l-1.4,0.8c0.9,1.9,2.9,2.9,5.7,2.9c3.1,0,6-1.9,6-5.6v-11.5h-1.6V167.7z M455.1,176.1
		c-2.7,0-4.7-2.1-4.7-4.8c0-2.7,2.1-4.8,4.7-4.8s4.7,2.1,4.7,4.8C459.9,174.1,457.8,176.1,455.1,176.1z"/>
	<path class="st0" d="M469.5,175.4l-4.5-10.1h-1.7l5.4,12.1l-0.3,0.7c-0.6,1.6-1.7,2.7-3.3,2.5v1.5c2.2,0.2,3.9-1.4,4.8-3.7
		l5.1-13.1h-1.7L469.5,175.4z"/>
	<path class="st0" d="M485,160.3c-4.8,0-8.7,3.9-8.7,8.7c0,4.8,3.9,8.7,8.7,8.7c4.8,0,8.7-3.9,8.7-8.7
		C493.7,164.2,489.8,160.3,485,160.3z M485,177c-4.4,0-8-3.6-8-8s3.6-8,8-8c4.4,0,8,3.6,8,8S489.4,177,485,177z"/>
	<path class="st0" d="M488.5,167.4c0-1.5-1.1-2.9-3.4-2.9h-2.7v8.9h1.5v-3.2h1.2h0.2l1.7,3.2h1.7l-1.9-3.5
		C487.9,169.5,488.5,168.6,488.5,167.4z M485.2,168.8h-1.3V166h1.3c1.2,0,1.8,0.6,1.8,1.4C487,168.2,486.3,168.8,485.2,168.8z"/>
</g>
</svg>
